<svg id="Calque_1" data-name="Calque 1" xmlns="http://www.w3.org/2000/svg" viewBox="0 0 153.13 153.13">
  <title>log</title>
  <g>
    <!-- grand contour -->
    <path data-start="0" data-duration="235" d="M109.53,78.92h.94A7.52,7.52,0,0,1,118,86.44a6.58,6.58,0,0,0,5.17,6.43V90.93a4.7,4.7,0,0,1-3.29-4.49,9.45,9.45,0,0,0-.34-2.51c.19-.17.39-.35.58-.54a13.59,13.59,0,0,0,4-9.64,2.35,2.35,0,0,0-.94-1.88,2.35,2.35,0,0,0-.94,1.88,11.72,11.72,0,0,1-3.44,8.3,9.4,9.4,0,0,0-7.35-5,7.55,7.55,0,0,1,3.17-5.54,11.28,11.28,0,0,0-4.13-21.78h-4.28v1.88h.94a.94.94,0,0,1,0,1.88h-.94v1.88h.94A2.82,2.82,0,0,0,110,52.59a2.94,2.94,0,0,0-.16-.94h.68a9.41,9.41,0,0,1,0,18.81A11.76,11.76,0,0,0,99.5,78a11.69,11.69,0,0,1-.79-4.23h0a12.13,12.13,0,0,1,.14-1.8l2.64.21V70.28l-11.58-.93V65.12a2.35,2.35,0,0,1,2.15,2.34h16.29V65.58H102l.14-.14h0A6.11,6.11,0,0,0,104,61.07h-1.88a4.28,4.28,0,0,1-1.26,3h0a12.59,12.59,0,0,0-1.28,1.47h-6a4.22,4.22,0,0,0-3.59-2.34V51.18H61.65v14.4H43.45v1.88h18.2v1.91l-11.34.91v1.88L53,72a12.13,12.13,0,0,1,.14,1.8h0A11.76,11.76,0,0,1,42.24,85.47c-.29,0-.59,0-.88,0s-.68,0-1,0a7.93,7.93,0,0,1,.06,1,6.85,6.85,0,0,1,0,.91A7.53,7.53,0,0,1,32.89,94h0v11.29H50.45l-.59-1.88-1.18-3.76h-2l1.18,3.76H34.77V95.66a9.4,9.4,0,0,0,7.46-8.16,3.28,3.28,0,0,1,2.1,4.58l.29.94h2l-.3-.94a5,5,0,0,0,.2-1.41,5.16,5.16,0,0,0-1.62-3.75,13.57,13.57,0,0,0,5.84-3.3,11.68,11.68,0,0,1,2.36,7A3.29,3.29,0,0,1,49.82,94h-.59l3.53,11.29h6.76a4.74,4.74,0,0,1-.83-1.88H54.17l-2.46-7.88A5.18,5.18,0,0,0,55,90.67a13.54,13.54,0,0,0-3-8.46,13.53,13.53,0,0,0,2.87-7l6.74-.55v1.75L63.53,78V53.06H88V77.94l1.88-1.58V74.61l7,.56a13.53,13.53,0,0,0,2.87,7,13.54,13.54,0,0,0-3,8.46,5.17,5.17,0,0,0,3.43,4.87l-1.19,3.81h0a4.22,4.22,0,0,0-2.91,4H92.77a4.6,4.6,0,0,1-.86,1.88H98v-1.88a2.35,2.35,0,0,1,2.35-2.35l2.2-7.06H102a3.29,3.29,0,0,1-3.29-3.29,11.7,11.7,0,0,1,2.36-7,13.55,13.55,0,0,0,5.85,3.3,5.13,5.13,0,0,0-1.63,3.75,5,5,0,0,0,.2,1.41l-.29.94h2l.29-.94a3.31,3.31,0,0,1,2.1-4.58,9.42,9.42,0,0,0,7.46,8.16v3.92a4.23,4.23,0,0,0-2.35,3.79H104l1.17-3.76h-2L102,103.37l-.58,1.88h15.2v-1.88a2.35,2.35,0,0,1,2.35-2.35V94h0a7.53,7.53,0,0,1-7.47-6.61,6.85,6.85,0,0,1,0-.91,7.93,7.93,0,0,1,.06-1c-.33,0-.67,0-1,0s-.6,0-.89,0a11.78,11.78,0,0,1-8.82-5.09,9.88,9.88,0,0,1,9.71-8c.25,0,.51,0,.76,0a9.39,9.39,0,0,0-1.7,5.4ZM61.65,72.74,55,73.28a14.53,14.53,0,0,0-.13-1.48l6.8-.55Zm35.19.54-6.93-.56V71.23L97,71.8A14.78,14.78,0,0,0,96.84,73.28Z" transform="translate(0.51 0.25)" style="fill: none;stroke: #FFF;stroke-miterlimit: 10;stroke-width: 0.5px"/>
    <polygon data-start="225" data-duration="10" points="29.17 103.62 26.53 103.62 26.53 105.5 29.17 105.5 30.96 105.5 31.05 105.5 31.05 99.86 29.17 99.86 29.17 103.62" style="fill: none;stroke: #FFF;stroke-miterlimit: 10;stroke-width: 0.5px"/>
    <path data-start="60" data-duration="25" d="M101.49,51.65l-3.72,2.82H95v3.8l.79.79,1.33,1.33a.94.94,0,1,1,0,1.33l-1.33,1.33a2.82,2.82,0,1,0,2-4.82,3,3,0,0,0-.43,0h-.47V56.35h1.39L102,53.53h4.23V51.65Z" transform="translate(0.51 0.25)" style="fill: none;stroke: #FFF;stroke-miterlimit: 10;stroke-width: 0.5px"/>
    <path data-start="100" data-duration="25" d="M48.51,60.92l2.72,2.8h5.64V54.94h0a3.76,3.76,0,0,0,3.65-3.76H58.64a1.88,1.88,0,0,1-1.88,1.88H49.37v1.88H55v6.9H52.17L50.34,60Z" transform="translate(0.51 0.25)" style="fill: none;stroke: #FFF;stroke-miterlimit: 10;stroke-width: 0.5px"/>
    <path data-start="125" data-duration="35" d="M40.1,79,42,78.92a12.38,12.38,0,0,0-3.65-8.71l0,0a8.87,8.87,0,0,1,5.26-15.09,2.81,2.81,0,0,0,2.81,2.67h.94V55.88h-.94a.94.94,0,0,1-.94-.94h1.94V53a1.88,1.88,0,0,1,1.88-1.88h7.5a3.76,3.76,0,0,0,3.76-3.77H58.75a1.88,1.88,0,0,1-1.88,1.88h-7.5A3.76,3.76,0,0,0,45.61,53h-.94A10.87,10.87,0,0,0,37,71.6a10.41,10.41,0,0,1,2.9,5.55A9.43,9.43,0,0,0,33,82.05a11.72,11.72,0,0,1-3.44-8.3,2.35,2.35,0,0,0-.94-1.88,2.35,2.35,0,0,0-.94,1.88h0a13.59,13.59,0,0,0,4,9.64c.19.19.39.37.58.54A9.45,9.45,0,0,0,32,86.44a4.7,4.7,0,0,1-3.29,4.49v1.94a6.58,6.58,0,0,0,5.17-6.43A7.52,7.52,0,0,1,40.1,79Z" transform="translate(0.51 0.25)" style="fill: none;stroke: #FFF;stroke-miterlimit: 10;stroke-width: 0.5px"/>
    <polygon data-start="10" data-duration="10" points="126.39 94.21 121.79 94.21 121.79 96.09 125.81 96.09 126.39 94.21" style="fill: none;stroke: #FFF;stroke-miterlimit: 10;stroke-width: 0.5px"/>
    <polygon data-start="20" data-duration="10" points="121.79 98.92 124.92 98.92 125.51 97.03 121.79 97.03 121.79 98.92" style="fill: none;stroke: #FFF;stroke-miterlimit: 10;stroke-width: 0.5px"/>
    <polygon data-start="200" data-duration="10" points="109.25 94.21 105.39 94.21 104.82 96.09 108.66 96.09 109.25 94.21" style="fill: none;stroke: #FFF;stroke-miterlimit: 10;stroke-width: 0.5px"/>
    <polygon data-start="210" data-duration="10" points="103.94 98.92 107.78 98.92 108.37 97.03 104.53 97.03 103.94 98.92" style="fill: none;stroke: #FFF;stroke-miterlimit: 10;stroke-width: 0.5px"/>
    <polygon data-start="220" data-duration="10" points="123.67 99.86 121.79 99.86 121.79 105.5 121.87 105.5 123.67 105.5 126.31 105.5 126.31 103.62 123.67 103.62 123.67 99.86" style="fill: none;stroke: #FFF;stroke-miterlimit: 10;stroke-width: 0.5px"/>
    <polygon data-start="150" data-duration="10" points="27.03 96.09 31.05 96.09 31.05 94.21 26.44 94.21 27.03 96.09" style="fill: none;stroke: #FFF;stroke-miterlimit: 10;stroke-width: 0.5px"/>
    <polygon data-start="160" data-duration="10" points="27.91 98.92 31.05 98.92 31.05 97.03 27.32 97.03 27.91 98.92" style="fill: none;stroke: #FFF;stroke-miterlimit: 10;stroke-width: 0.5px"/>
    <polygon data-start="170" data-duration="10" points="43.59 94.21 44.17 96.09 48.01 96.09 47.44 94.21 43.59 94.21" style="fill: none;stroke: #FFF;stroke-miterlimit: 10;stroke-width: 0.5px"/>
    <polygon data-start="180" data-duration="10" points="48.9 98.92 48.31 97.03 44.47 97.03 45.05 98.92 48.9 98.92" style="fill: none;stroke: #FFF;stroke-miterlimit: 10;stroke-width: 0.5px"/>
    
    <path data-start="30" data-duration="175" d="M89.14,99.76a3.29,3.29,0,0,0-5.24-4,3.11,3.11,0,0,0-.66,1.29l-6-5,3.28-2.74,3,3.62L85,91.75,87.14,90l-1.2-1.45-2.17,1.81L82,88.14l6.5-5.42,1.8,2.17L88.11,86.7l1.2,1.44,2.89-2.41.72-.6-3-3.61,2.89-2.41-1.2-1.44-2.89,2.4-1.15,1-.29.25L80.38,87l-1.06.89-3.55,2.95L64.21,81.22,62.76,80l-2.89-2.41-1.2,1.45,2.89,2.4-3,3.62.72.6,2.89,2.41,1.21-1.45L61.2,84.83,63,82.67l6.51,5.41L67.7,90.25l-2.17-1.8-1.2,1.44L66.5,91.7l1.44,1.2,3-3.61,3.35,2.79-6.06,5a3.37,3.37,0,0,0-.66-1.29,3.29,3.29,0,0,0-5.24,4,2.82,2.82,0,1,0,2.77,4.82,2.88,2.88,0,0,0,.62-.74,3.3,3.3,0,0,0,4.86-4.44,3.34,3.34,0,0,0-1.15-.88l6.33-5.27L82,98.52a3.11,3.11,0,0,0-1.14.88,3.29,3.29,0,0,0,4.85,4.43,2.76,2.76,0,0,0,.63.74A2.82,2.82,0,1,0,90,100.24,2.64,2.64,0,0,0,89.14,99.76ZM63.9,103.18a.94.94,0,1,1,.12-1.32A.93.93,0,0,1,63.9,103.18ZM66,99a1.41,1.41,0,1,1,.18-2A1.4,1.4,0,0,1,66,99Zm3,3.61a1.41,1.41,0,1,1-1.81-2.16h0a1.41,1.41,0,1,1,1.8,2.16Zm15.54-.23a1.41,1.41,0,1,1-.18-2h0A1.41,1.41,0,0,1,84.5,102.41Zm1-3.44a1.41,1.41,0,1,1,2-.18A1.4,1.4,0,0,1,85.52,99Zm3.37,4a.94.94,0,0,1-1.32.12,1,1,0,0,1-.12-1.33A.94.94,0,1,1,88.89,103Z" transform="translate(0.51 0.25)" style="fill: none;stroke: #FFF;stroke-miterlimit: 10;stroke-width: 0.5px"/>
    <path data-start="750" data-duration="20" d="M72.9,103.37a5.26,5.26,0,0,1-1.22,1.88h8.17a5.28,5.28,0,0,1-1.26-1.88Z" transform="translate(0.51 0.25)" style="fill: none;stroke: #FFF;stroke-miterlimit: 10;stroke-width: 0.5px"/>

    <rect data-start="50" data-duration="10" x="65.91" y="55.19" width="3.63" height="5.62" style="fill: none;stroke: #FFF;stroke-miterlimit: 10;stroke-width: 0.5px"/>
    <rect data-start="60" data-duration="10" x="70.58" y="55.19" width="3.63" height="5.62" style="fill: none;stroke: #FFF;stroke-miterlimit: 10;stroke-width: 0.5px"/>
    <rect data-start="70" data-duration="10" x="78.36" y="55.18" width="3.63" height="5.64" style="fill: none;stroke: #FFF;stroke-miterlimit: 10;stroke-width: 0.5px"/>
    <rect data-start="80" data-duration="10" x="83.03" y="55.18" width="3.63" height="5.64" style="fill: none;stroke: #FFF;stroke-miterlimit: 10;stroke-width: 0.5px"/>
    <rect data-start="90" data-duration="10" x="65.91" y="61.85" width="3.63" height="5.56" style="fill: none;stroke: #FFF;stroke-miterlimit: 10;stroke-width: 0.5px"/>
    <rect data-start="100" data-duration="10" x="70.58" y="61.85" width="3.63" height="5.56" style="fill: none;stroke: #FFF;stroke-miterlimit: 10;stroke-width: 0.5px"/>
    <rect data-start="110" data-duration="10" x="78.36" y="61.85" width="3.63" height="5.55" style="fill: none;stroke: #FFF;stroke-miterlimit: 10;stroke-width: 0.5px"/>
    <rect data-start="120" data-duration="10" x="83.03" y="61.85" width="3.63" height="5.55" style="fill: none;stroke: #FFF;stroke-miterlimit: 10;stroke-width: 0.5px"/>
    <rect data-start="130" data-duration="10" x="65.91" y="71.85" width="3.63" height="5.65" style="fill: none;stroke: #FFF;stroke-miterlimit: 10;stroke-width: 0.5px"/>
    <rect data-start="140" data-duration="10" x="70.58" y="71.85" width="3.63" height="5.65" style="fill: none;stroke: #FFF;stroke-miterlimit: 10;stroke-width: 0.5px"/>
    <rect data-start="150" data-duration="10" x="78.36" y="71.84" width="3.63" height="5.66" style="fill: none;stroke: #FFF;stroke-miterlimit: 10;stroke-width: 0.5px"/>
    <rect data-start="160" data-duration="10" x="83.03" y="71.84" width="3.63" height="5.66" style="fill: none;stroke: #FFF;stroke-miterlimit: 10;stroke-width: 0.5px"/>
    <polygon data-start="170" data-duration="10" points="65.91 79.79 69.54 82.84 69.54 78.54 65.91 78.54 65.91 79.79" style="fill: none;stroke: #FFF;stroke-miterlimit: 10;stroke-width: 0.5px"/>
    <polygon data-start="180" data-duration="10" points="70.58 83.72 74.21 86.77 74.21 78.54 70.58 78.54 70.58 83.72" style="fill: none;stroke: #FFF;stroke-miterlimit: 10;stroke-width: 0.5px"/>
    <polygon data-start="190" data-duration="10" points="78.36 86.76 81.99 83.7 81.99 78.54 78.36 78.54 78.36 86.76" style="fill: none;stroke: #FFF;stroke-miterlimit: 10;stroke-width: 0.5px"/>
    <polygon data-start="200" data-duration="10" points="83.03 82.83 86.66 79.78 86.66 78.54 83.03 78.54 83.03 82.83" style="fill: none;stroke: #FFF;stroke-miterlimit: 10;stroke-width: 0.5px"/>
    <path data-start="225" data-duration="10" d="M95.42,62V60.11c-.94,0-.94-.47-1.88-.47s-.94.47-1.88.47V62c.94,0,.94-.47,1.88-.47S94.48,62,95.42,62Z" transform="translate(0.51 0.25)" style="fill: none;stroke: #FFF;stroke-miterlimit: 10;stroke-width: 0.5px"/>
    <rect data-start="217" data-duration="8" x="100.99" y="55.4" width="1.91" height="1.91" transform="translate(-9.48 88.84) rotate(-45)" style="fill: none;stroke: #FFF;stroke-miterlimit: 10;stroke-width: 0.5px"/>
    <path data-start="225" data-duration="8" d="M53.58,56.35H51.23a1.18,1.18,0,1,0,2.35,0Z" transform="translate(0.51 0.25)" style="fill: none;stroke: #FFF;stroke-miterlimit: 10;stroke-width: 0.5px"/>
    <rect data-start="225" data-duration="100" x="64.11" y="85.41" width="1.88" height="2.82" transform="translate(-42.79 81.49) rotate(-50.21)" style="fill: none;stroke: #FFF;stroke-miterlimit: 10;stroke-width: 0.5px"/>
    <rect data-start="225" data-duration="10" x="85.01" y="85.94" width="2.82" height="1.88" transform="translate(-35.08 75.68) rotate(-39.79)" style="fill: none;stroke: #FFF;stroke-miterlimit: 10;stroke-width: 0.5px"/>
    
    
    -->
  </g>
  <rect data-start="0" data-duration="5" x="74.57" y="0.25" width="4" height="8.12" style="fill: none;stroke: #FFF;stroke-miterlimit: 10;stroke-width: 0.5px"/>
  <rect data-start="235" data-duration="5" x="64.63" y="0.62" width="4" height="8.12" transform="translate(0.47 8.99) rotate(-7.5)" style="fill: none;stroke: #FFF;stroke-miterlimit: 10;stroke-width: 0.5px"/>
  <rect data-start="230" data-duration="5" x="55.36" y="2.46" width="4" height="8.12" transform="translate(0.77 15.32) rotate(-15)" style="fill: none;stroke: #FFF;stroke-miterlimit: 10;stroke-width: 0.5px"/>
  <rect data-start="225" data-duration="5" x="46.41" y="5.5" width="4" height="8.12" transform="translate(0.53 19.5) rotate(-22.5)" style="fill: none;stroke: #FFF;stroke-miterlimit: 10;stroke-width: 0.5px"/>
  <rect data-start="220" data-duration="5" x="37.93" y="9.68" width="4" height="8.12" transform="translate(-1.01 22.06) rotate(-30)" style="fill: none;stroke: #FFF;stroke-miterlimit: 10;stroke-width: 0.5px"/>
  <rect data-start="215" data-duration="5" x="30.07" y="14.93" width="4" height="8.12" transform="translate(-4.43 23.7) rotate(-37.5)" style="fill: none;stroke: #FFF;stroke-miterlimit: 10;stroke-width: 0.5px"/>
  <rect data-start="210" data-duration="5" x="22.97" y="21.16" width="4" height="8.12" transform="translate(-10.02 25.29) rotate(-45)" style="fill: none;stroke: #FFF;stroke-miterlimit: 10;stroke-width: 0.5px"/>
  <rect data-start="205" data-duration="5" x="16.74" y="28.27" width="4" height="8.12" transform="translate(-17.81 27.76) rotate(-52.5)" style="fill: none;stroke: #FFF;stroke-miterlimit: 10;stroke-width: 0.5px"/>
  <rect data-start="200" data-duration="5" x="11.49" y="36.13" width="4" height="8.12" transform="translate(-27.56 32.02) rotate(-60)" style="fill: none;stroke: #FFF;stroke-miterlimit: 10;stroke-width: 0.5px"/>
  <rect data-start="195" data-duration="5" x="7.3" y="44.6" width="4" height="8.12" transform="translate(-38.71 38.89) rotate(-67.5)" style="fill: none;stroke: #FFF;stroke-miterlimit: 10;stroke-width: 0.5px"/>
  <rect data-start="190" data-duration="5" x="4.27" y="53.55" width="4" height="8.12" transform="translate(-50.5 49) rotate(-75)" style="fill: none;stroke: #FFF;stroke-miterlimit: 10;stroke-width: 0.5px"/>
  <rect data-start="185" data-duration="5" x="2.42" y="62.82" width="4" height="8.12" transform="translate(-61.96 62.79) rotate(-82.5)" style="fill: none;stroke: #FFF;stroke-miterlimit: 10;stroke-width: 0.5px"/>
  <rect data-start="180" data-duration="5" x="0.25" y="74.57" width="8.12" height="4" style="fill: none;stroke: #FFF;stroke-miterlimit: 10;stroke-width: 0.5px"/>
  <rect data-start="175" data-duration="5" x="0.36" y="83.75" width="8.12" height="4" transform="translate(-10.66 1.56) rotate(-7.5)" style="fill: none;stroke: #FFF;stroke-miterlimit: 10;stroke-width: 0.5px"/>
  <rect data-start="170" data-duration="5" x="2.21" y="93.02" width="8.12" height="4" transform="translate(-23.87 5.11) rotate(-15)" style="fill: none;stroke: #FFF;stroke-miterlimit: 10;stroke-width: 0.5px"/>
  <rect data-start="165" data-duration="5" x="5.24" y="101.97" width="8.12" height="4" transform="translate(-38.56 11.72) rotate(-22.5)" style="fill: none;stroke: #FFF;stroke-miterlimit: 10;stroke-width: 0.5px"/>
  <rect data-start="160" data-duration="5" x="9.42" y="110.44" width="8.12" height="4" transform="translate(-53.9 22.05) rotate(-29.99)" style="fill: none;stroke: #FFF;stroke-miterlimit: 10;stroke-width: 0.5px"/>
  <rect data-start="155" data-duration="5" x="14.67" y="118.3" width="8.12" height="4" transform="translate(-68.86 36.52) rotate(-37.5)" style="fill: none;stroke: #FFF;stroke-miterlimit: 10;stroke-width: 0.5px"/>
  <rect data-start="150" data-duration="5" x="20.91" y="125.41" width="8.12" height="4" transform="translate(-82.27 55.22) rotate(-45)" style="fill: none;stroke: #FFF;stroke-miterlimit: 10;stroke-width: 0.5px"/>
  <rect data-start="145" data-duration="5" x="28.01" y="131.64" width="8.12" height="4" transform="translate(-92.96 77.96) rotate(-52.49)" style="fill: none;stroke: #FFF;stroke-miterlimit: 10;stroke-width: 0.5px"/>
  <rect data-start="140" data-duration="5" x="35.87" y="136.89" width="8.12" height="4" transform="translate(-99.81 104.27) rotate(-60)" style="fill: none;stroke: #FFF;stroke-miterlimit: 10;stroke-width: 0.5px"/>
  <rect data-start="135" data-duration="5" x="44.35" y="141.07" width="8.12" height="4" transform="translate(-101.79 133.27) rotate(-67.49)" style="fill: none;stroke: #FFF;stroke-miterlimit: 10;stroke-width: 0.5px"/>
  <rect data-start="130" data-duration="5" x="53.3" y="144.11" width="8.12" height="4" transform="translate(-98.11 163.95) rotate(-75)" style="fill: none;stroke: #FFF;stroke-miterlimit: 10;stroke-width: 0.5px"/>
  <rect data-start="125" data-duration="5" x="62.57" y="145.95" width="8.12" height="4" transform="translate(-88.24 194.97) rotate(-82.51)" style="fill: none;stroke: #FFF;stroke-miterlimit: 10;stroke-width: 0.5px"/>
  <rect data-start="120" data-duration="5" x="74.57" y="144.76" width="4" height="8.12" style="fill: none;stroke: #FFF;stroke-miterlimit: 10;stroke-width: 0.5px"/>
  <rect data-start="115" data-duration="5" x="83.49" y="143.89" width="4" height="8.12" transform="translate(-18.06 12.67) rotate(-7.49)" style="fill: none;stroke: #FFF;stroke-miterlimit: 10;stroke-width: 0.5px"/>
  <rect data-start="110" data-duration="5" x="92.76" y="142.05" width="4" height="8.12" transform="translate(-34.08 29.75) rotate(-15)" style="fill: none;stroke: #FFF;stroke-miterlimit: 10;stroke-width: 0.5px"/>
  <rect data-start="105" data-duration="5" x="101.71" y="139.01" width="4" height="8.12" transform="translate(-46.35 50.83) rotate(-22.5)" style="fill: none;stroke: #FFF;stroke-miterlimit: 10;stroke-width: 0.5px"/>
  <rect data-start="100" data-duration="5" x="110.19" y="134.83" width="4" height="8.12" transform="translate(-53.91 74.95) rotate(-30)" style="fill: none;stroke: #FFF;stroke-miterlimit: 10;stroke-width: 0.5px"/>
  <rect data-start="95" data-duration="5" x="118.05" y="129.58" width="4" height="8.12" transform="translate(-56.04 100.97) rotate(-37.51)" style="fill: none;stroke: #FFF;stroke-miterlimit: 10;stroke-width: 0.5px"/>
  <rect data-start="90" data-duration="5" x="125.15" y="123.35" width="4" height="8.12" transform="translate(-52.34 127.48) rotate(-45)" style="fill: none;stroke: #FFF;stroke-miterlimit: 10;stroke-width: 0.5px"/>
  <rect data-start="85" data-duration="5" x="131.38" y="116.24" width="4" height="8.12" transform="translate(-42.75 153.13) rotate(-52.5)" style="fill: none;stroke: #FFF;stroke-miterlimit: 10;stroke-width: 0.5px"/>
  <rect data-start="80" data-duration="5" x="136.63" y="108.38" width="4" height="8.12" transform="translate(-27.55 176.54) rotate(-60)" style="fill: none;stroke: #FFF;stroke-miterlimit: 10;stroke-width: 0.5px"/>
  <rect data-start="75" data-duration="5" x="140.81" y="99.91" width="4" height="8.12" transform="matrix(0.38, -0.92, 0.92, 0.38, -7.39, 196.37)" style="fill: none;stroke: #FFF;stroke-miterlimit: 10;stroke-width: 0.5px"/>
  <rect data-start="70" data-duration="5" x="143.85" y="90.96" width="4" height="8.12" transform="translate(16.83 211.55) rotate(-75)" style="fill: none;stroke: #FFF;stroke-miterlimit: 10;stroke-width: 0.5px"/>
  <rect data-start="65" data-duration="5" x="145.7" y="81.69" width="4" height="8.12" transform="translate(43.91 221.24) rotate(-82.5)" style="fill: none;stroke: #FFF;stroke-miterlimit: 10;stroke-width: 0.5px"/>
  <rect data-start="60" data-duration="5" x="144.76" y="74.57" width="8.12" height="4" style="fill: none;stroke: #FFF;stroke-miterlimit: 10;stroke-width: 0.5px"/>
  <rect data-start="55" data-duration="5" x="143.64" y="64.89" width="8.12" height="4" transform="translate(-6.95 20.08) rotate(-7.49)" style="fill: none;stroke: #FFF;stroke-miterlimit: 10;stroke-width: 0.5px"/>
  <rect data-start="50" data-duration="5" x="141.79" y="55.62" width="8.12" height="4" transform="translate(-9.44 39.96) rotate(-15)" style="fill: none;stroke: #FFF;stroke-miterlimit: 10;stroke-width: 0.5px"/>
  <rect data-start="45" data-duration="5" x="138.75" y="46.67" width="8.12" height="4" transform="translate(-7.24 58.63) rotate(-22.51)" style="fill: none;stroke: #FFF;stroke-miterlimit: 10;stroke-width: 0.5px"/>
  <rect data-start="40" data-duration="5" x="134.57" y="38.19" width="8.12" height="4" transform="translate(-1.01 74.96) rotate(-30)" style="fill: none;stroke: #FFF;stroke-miterlimit: 10;stroke-width: 0.5px"/>
  <rect data-start="35" data-duration="5" x="129.32" y="30.33" width="8.12" height="4" transform="translate(8.39 88.13) rotate(-37.5)" style="fill: none;stroke: #FFF;stroke-miterlimit: 10;stroke-width: 0.5px"/>
  <rect data-start="30" data-duration="5" x="123.09" y="23.22" width="8.12" height="4" transform="translate(19.91 97.55) rotate(-45)" style="fill: none;stroke: #FFF;stroke-miterlimit: 10;stroke-width: 0.5px"/>
  <rect data-start="25" data-duration="5" x="115.98" y="16.99" width="8.12" height="4" transform="translate(32.4 102.92) rotate(-52.5)" style="fill: none;stroke: #FFF;stroke-miterlimit: 10;stroke-width: 0.5px"/>
  <rect data-start="20" data-duration="5" x="108.13" y="11.74" width="8.12" height="4" transform="translate(44.71 104.28) rotate(-60.01)" style="fill: none;stroke: #FFF;stroke-miterlimit: 10;stroke-width: 0.5px"/>
  <rect data-start="15" data-duration="5" x="99.65" y="7.56" width="8.12" height="4" transform="translate(55.7 101.97) rotate(-67.5)" style="fill: none;stroke: #FFF;stroke-miterlimit: 10;stroke-width: 0.5px"/>
  <rect data-start="10" data-duration="5" x="90.7" y="4.52" width="8.12" height="4" transform="translate(64.44 96.62) rotate(-75)" style="fill: none;stroke: #FFF;stroke-miterlimit: 10;stroke-width: 0.5px"/>
  <rect data-start="5" data-duration="5" x="81.43" y="2.68" width="8.12" height="4" transform="translate(70.21 89.08) rotate(-82.51)" style="fill: none;stroke: #FFF;stroke-miterlimit: 10;stroke-width: 0.5px"/>
</svg>
